<?xml version="1.0" encoding="UTF-8" standalone="no"?>
<svg width="135px" height="32px" viewBox="0 0 135 32" version="1.1" xmlns="http://www.w3.org/2000/svg" xmlns:xlink="http://www.w3.org/1999/xlink">
    <!-- Generator: Sketch 3.7.2 (28276) - http://www.bohemiancoding.com/sketch -->
    <title>iPhone 6</title>
    <desc>Created with Sketch.</desc>
    <defs>
        <polygon id="path-1" points="0 25.9639138 132.646845 25.9639138 132.646845 0 0 0"></polygon>
    </defs>
    <g id="Page-1" stroke="none" stroke-width="1" fill="none" fill-rule="evenodd">
        <g id="iPhone-6">
            <g id="Page-1" transform="translate(1.000000, 4.000000)">
                <path d="M45.0961483,14.1485052 L43.5298724,21.2110914 L37.7150621,21.2110914 L33.9452862,7.19283276 L39.5738379,7.19283276 L41.0072,15.7421259 C41.0072,15.7421259 41.0338724,15.6356603 42.7330621,7.19283276 L47.5123552,7.19283276 C49.1850966,15.6356603 49.2115448,15.7421259 49.2115448,15.7421259 L50.6449069,7.19283276 L56.300131,7.19283276 L52.5036828,21.2110914 L46.6890966,21.2110914 L45.0961483,14.1485052 L45.0961483,14.1485052 Z" id="Fill-1" fill="#2962FF"></path>
                <path d="M63.8179862,17.1222776 C65.3582621,17.1222776 66.4733483,15.980519 66.4733483,14.2015362 C66.4733483,12.42345 65.3582621,11.255019 63.8179862,11.255019 C62.2781586,11.255019 61.1630724,12.42345 61.1630724,14.2015362 C61.1630724,15.980519 62.2781586,17.1222776 63.8179862,17.1222776 M63.8179862,21.55595 C59.3843138,21.55595 56.0123828,18.4500707 56.0123828,14.2015362 C56.0123828,9.95389828 59.3843138,6.84734655 63.8179862,6.84734655 C68.252331,6.84734655 71.6242621,9.95389828 71.6242621,14.2015362 C71.6242621,18.4500707 68.252331,21.55595 63.8179862,21.55595" id="Fill-3" fill="#2962FF"></path>
                <path d="M81.3975052,11.8657948 C81.2114707,11.8126741 80.9196431,11.7595534 80.5742466,11.7595534 C78.8483845,11.7595534 77.8926603,12.8479672 77.8926603,14.6800707 L77.8926603,21.2112259 L72.7419707,21.2112259 L72.7419707,7.1927431 L77.7597466,7.1927431 L77.7597466,8.97172586 C78.4503155,7.64393276 79.8836776,6.84734655 81.3975052,6.84734655 L81.3975052,11.8657948 Z" id="Fill-5" fill="#2962FF"></path>
                <polygon id="Fill-7" fill="#2962FF" points="82.5664069 2.01540345 87.7170966 2.01540345 87.7170966 12.6352828 91.0092345 7.19276552 96.7709241 7.19276552 92.3105793 13.6441276 97.1423207 21.2112483 91.0890276 21.2112483 87.7170966 15.0250414 87.7170966 21.2112483 82.5664069 21.2112483"></polygon>
                <mask id="mask-2" fill="white">
                    <use xlink:href="#path-1"></use>
                </mask>
                <g id="Clip-10"></g>
                <polygon id="Fill-9" fill="#2962FF" mask="url(#mask-2)" points="97.729069 21.2112931 102.879983 21.2112931 102.879983 2.01544828 97.729069 2.01544828"></polygon>
                <path d="M104.686759,21.211069 L109.837672,21.211069 L109.837672,7.19281034 L104.686759,7.19281034 L104.686759,21.211069 Z M107.261655,1.24531034 C108.775483,1.24531034 110.023483,2.33372414 110.023483,3.82087931 C110.023483,5.28091379 108.775483,6.36955172 107.261655,6.36955172 C105.748724,6.36955172 104.527172,5.28091379 104.527172,3.82087931 C104.527172,2.33372414 105.748724,1.24531034 107.261655,1.24531034 L107.261655,1.24531034 Z" id="Fill-11" fill="#2962FF" mask="url(#mask-2)"></path>
                <polygon id="Fill-12" fill="#2962FF" mask="url(#mask-2)" points="111.644224 21.2112931 116.795138 21.2112931 116.795138 2.01544828 111.644224 2.01544828"></polygon>
                <polygon id="Fill-13" fill="#2962FF" mask="url(#mask-2)" points="120.911902 25.9639138 122.797126 20.6803103 117.593316 7.19281034 123.115402 7.19281034 125.133091 14.4409828 127.284143 7.19281034 132.646867 7.19281034 125.743643 25.9639138"></polygon>
                <path d="M9.81336379,6.19268448 C8.40488103,5.20827069 6.87200172,4.58068448 5.32769138,4.36483966 C4.01670862,7.73721897 4.38026034,11.9617707 6.32286379,15.53565 C7.84991552,18.3541845 10.1979845,20.4709431 12.7870017,21.4757534 C10.5099845,18.7614431 9.16470862,14.9611845 9.16470862,10.9549431 C9.16470862,9.31268448 9.39019138,7.7049431 9.81336379,6.19268448" id="Fill-14" fill="#2962FF" mask="url(#mask-2)"></path>
                <path d="M16.5854224,10.0318534 L16.5854224,10.0318534 L17.372819,8.77600862 C17.2600776,8.62740517 17.181181,8.45123276 17.181181,8.25018103 C17.181181,7.76133621 17.5772328,7.36506034 18.0665259,7.36506034 C18.5553707,7.36506034 18.9514224,7.76133621 18.9514224,8.25018103 C18.9514224,8.73902586 18.5553707,9.13530172 18.0665259,9.13530172 C18.0134052,9.13530172 17.967681,9.11400862 17.9174741,9.10526724 L17.1899224,10.2647328 L17.1899224,20.00375 C19.0184397,17.6088362 20.0895948,14.3713879 20.0895948,10.9548534 C20.0895948,6.51871552 18.2906638,2.37619828 15.361181,0.000112068965 C12.432819,2.37619828 10.6325431,6.51871552 10.6325431,10.9548534 C10.6325431,14.369819 11.7036983,17.6081638 13.5322155,20.0035259 L13.5322155,13.8608017 L12.8048879,12.7011121 C12.754681,12.7100776 12.7089569,12.7313707 12.6556121,12.7313707 C12.1667672,12.7313707 11.7707155,12.3348707 11.7707155,11.8460259 C11.7707155,11.357181 12.1667672,10.9609052 12.6556121,10.9609052 C13.1449052,10.9609052 13.5409569,11.357181 13.5409569,11.8460259 C13.5409569,12.0470776 13.4622845,12.22325 13.349319,12.3718534 L14.1367155,13.6276983 L14.1367155,13.6276983 L14.1382845,13.6276983 L14.1382845,20.7346638 C14.4296638,21.0585431 14.7367328,21.3620259 15.0585948,21.6444397 L15.0585948,6.08500862 C14.7217155,5.96061207 14.4785259,5.64368103 14.4785259,5.2635431 C14.4785259,4.7760431 14.873681,4.38088793 15.3609569,4.38088793 C15.8484569,4.38088793 16.2436121,4.7760431 16.2436121,5.2635431 C16.2436121,5.64323276 16.0010948,5.96016379 15.6646638,6.08456034 L15.6646638,6.7585431 L15.6646638,21.6435431 C15.9860776,21.3615776 16.2926983,21.058319 16.5838534,20.7346638 L16.5838534,10.0318534 L16.5854224,10.0318534 Z" id="Fill-15" fill="#2962FF" mask="url(#mask-2)"></path>
                <path d="M5.04606207,16.3201552 C4.42430345,15.171 3.95361379,13.9586379 3.62637241,12.7258793 C2.34430345,12.7113103 1.10773448,12.9518103 4.4827586e-05,13.4307931 C0.414924138,16.5936034 2.43776897,19.6190172 5.37913103,21.4287069 C7.59495862,22.7919138 10.1118034,23.3217759 12.4065276,22.9916207 C9.44588966,21.879 6.76856207,19.4991034 5.04606207,16.3201552" id="Fill-16" fill="#2962FF" mask="url(#mask-2)"></path>
                <path d="M24.4033086,15.5355603 C26.3418776,11.961681 26.7054293,7.73511207 25.3962397,4.36475 C23.8501362,4.58283621 22.3192741,5.21042241 20.9107914,6.19259483 C21.3335155,7.70485345 21.5594466,9.31259483 21.5594466,10.9548534 C21.5594466,14.9633362 20.2141707,18.7615776 17.9389466,21.4756638 C20.529981,20.4710776 22.8762569,18.3540948 24.4033086,15.5355603" id="Fill-17" fill="#2962FF" mask="url(#mask-2)"></path>
                <path d="M27.0958552,12.7259241 C26.7686138,13.9586828 26.2977,15.1688034 25.6761655,16.3179586 C23.9516483,19.497131 21.2763379,21.8774759 18.3157,22.9896483 C20.6104241,23.3218207 23.1270448,22.7917345 25.3428724,21.4287517 C28.2844586,19.6190621 30.3073034,16.5934241 30.7221828,13.4285966 C29.6144931,12.9518552 28.3779241,12.7113552 27.0958552,12.7259241" id="Fill-18" fill="#2962FF" mask="url(#mask-2)"></path>
            </g>
        </g>
    </g>
</svg>